<?xml version="1.0" encoding="UTF-8"?>
<svg version="1.1" viewBox="0 0 1024 1024" width="1024" height="1024" xmlns="http://www.w3.org/2000/svg">
<path transform="translate(0)" d="m0 0h1024v1024h-1024z" fill="#F3F3F3"/>
<path transform="translate(513,191)" d="m0 0 6 2 52 26 19 10 26 13 19 10 47 24 101 52 2 1v255h-542v-254l8-5 48-24 19-10 16-8 27-14 41-21 32-16 19-10 24-12 19-10z" fill="#1F3A51"/>
<path transform="translate(396,624)" d="m0 0h170l219 1v75l-33 17-26 13-19 10-26 13-19 10-40 20-19 10-32 16-19 10-36 18-5-1-74-38-36-18-19-10-52-26-19-10-58-29-10-6v-74z" fill="#1F3A51"/>
<path transform="translate(513,307)" d="m0 0 3 3 101 202 11 23 12 24v2h-58l-38-78-18-36-11-23-2-2-12 24-11 23-34 68-11 23-1 1h-58l2-6 44-88 10-19 70-140z" fill="#F3F3F3"/>
<path transform="translate(514,213)" d="m0 0 19 9 29 15 20 10 19 10 47 24 27 14 26 13 19 10 22 11 19 10 4 2v230h-11v-223l-6-2-129-66-35-18-68-35-6 2-34 17-19 10-20 10-19 10-32 16-19 10-24 12-19 10-24 12-19 10-6 2v223h-11l-1-1v-228l19-10 39-20 139-71 29-15z" fill="#F3F3F3"/>
<path transform="translate(263,638)" d="m0 0h12l1 42 19 10 50 25 19 10 50 25 19 10 20 10 19 10 24 12 17 9 5-1 38-19 19-10 26-13 19-10 41-21 47-24 20-10 19-10 6-3 1-42h11v50l-60 30-19 10-32 16-19 10-30 15-19 10-28 14-19 10-24 12-5-2-22-11-19-10-20-10-19-10-28-14-19-10-36-18-19-10-64-32-1-1z" fill="#F3F3F3"/>
</svg>
